<svg width="64" height="45" viewBox="0 0 64 45" fill="none" xmlns="http://www.w3.org/2000/svg">
<path fill-rule="evenodd" clip-rule="evenodd" d="M26.4696 4.85566C28.5204 2.71931 31.3774 1.3927 34.5357 1.3927C38.7339 1.3927 42.3979 3.73427 44.3486 7.21044C46.0938 6.43085 47.9842 6.02902 49.8957 6.03131C57.4686 6.03131 63.607 12.224 63.607 19.8644C63.607 27.5047 57.4686 33.6974 49.8957 33.6974C48.9698 33.6974 48.0668 33.6049 47.1938 33.4289C45.4762 36.4918 42.2011 38.5621 38.4439 38.5621C36.871 38.5621 35.383 38.2004 34.0592 37.5527C32.3172 41.6501 28.2595 44.5218 23.5312 44.5218C18.6073 44.5218 14.4098 41.4052 12.7993 37.0358C12.0818 37.1872 11.3504 37.2635 10.6171 37.2633C4.75342 37.264 2.94892e-05 32.4612 2.94892e-05 26.5364C-0.0043695 24.6587 0.483462 22.8127 1.41489 21.1824C2.34633 19.552 3.68882 18.1943 5.30855 17.2445C4.63658 15.6962 4.29084 14.026 4.2929 12.3381C4.2929 5.52349 9.82403 8.39604e-06 16.647 8.39604e-06C18.5477 -0.00220919 20.4232 0.434889 22.1271 1.27718C23.831 2.11947 25.3172 3.34417 26.4696 4.85566Z" fill="#00A1E0"/>
</svg>
