<svg width="50" height="50" viewBox="0 0 50 50" fill="none" xmlns="http://www.w3.org/2000/svg">
<g filter="url(#filter0_d_592:2970)">
<circle cx="24" cy="24" r="18.5" stroke="#666666" stroke-width="3"/>
<path d="M23.1882 34.1925C22.386 34.1925 21.4956 34.1444 20.5169 34.0481C19.5383 33.9519 18.696 33.8315 17.9901 33.6872V31.0159C19.9474 31.2084 21.5758 31.3047 22.8753 31.3047C23.8058 31.3047 24.4957 31.2646 24.9449 31.1844C25.3942 31.1042 25.7311 30.9197 25.9557 30.6309C26.1803 30.3421 26.2926 29.8768 26.2926 29.2351C26.2926 28.6415 26.2124 28.1923 26.0519 27.8874C25.9075 27.5826 25.6508 27.374 25.2818 27.2617C24.9289 27.1334 24.4155 27.0692 23.7417 27.0692H20.8538V24.1814H23.7417C24.608 24.1814 25.2257 24.053 25.5947 23.7963C25.9637 23.5236 26.1482 22.9862 26.1482 22.184C26.1482 21.5422 26.0439 21.085 25.8353 20.8123C25.6428 20.5235 25.3139 20.339 24.8487 20.2588C24.3834 20.1785 23.6454 20.1384 22.6347 20.1384C21.9608 20.1384 21.1908 20.1705 20.3244 20.2347C19.4741 20.2989 18.7281 20.3711 18.0863 20.4513V17.756C18.7602 17.6116 19.5784 17.4913 20.541 17.395C21.5036 17.2987 22.394 17.2506 23.2122 17.2506C25.5706 17.2506 27.2231 17.6116 28.1697 18.3335C29.1323 19.0395 29.6136 20.1304 29.6136 21.6064C29.6136 22.7776 29.381 23.668 28.9157 24.2777C28.4504 24.8873 27.7365 25.2964 26.7739 25.505V25.6012C27.7846 25.8258 28.5387 26.2269 29.036 26.8045C29.5334 27.3821 29.782 28.3046 29.782 29.572C29.782 30.5667 29.5975 31.401 29.2285 32.0748C28.8756 32.7326 28.2178 33.254 27.2552 33.639C26.2926 34.008 24.9369 34.1925 23.1882 34.1925Z" fill="#666666"/>
<path d="M17.9901 33.6872H16.9901V34.5033L17.7897 34.6669L17.9901 33.6872ZM17.9901 31.0159L18.088 30.0207L16.9901 29.9127V31.0159H17.9901ZM25.9557 30.6309L25.1663 30.0169V30.0169L25.9557 30.6309ZM26.0519 27.8874L25.1482 28.3155L25.1572 28.3346L25.167 28.3532L26.0519 27.8874ZM25.2818 27.2617L24.9401 28.2015L24.9652 28.2106L24.9907 28.2184L25.2818 27.2617ZM20.8538 27.0692H19.8538V28.0692H20.8538V27.0692ZM20.8538 24.1814V23.1814H19.8538V24.1814H20.8538ZM25.5947 23.7963L26.1658 24.6173L26.1775 24.6091L26.1891 24.6005L25.5947 23.7963ZM25.8354 20.8123L25.0033 21.367L25.0213 21.3939L25.041 21.4197L25.8354 20.8123ZM24.8487 20.2588L25.0186 19.2733L24.8487 20.2588ZM20.3244 20.2347L20.2505 19.2374L20.2492 19.2375L20.3244 20.2347ZM18.0863 20.4513H17.0863V21.5841L18.2104 21.4436L18.0863 20.4513ZM18.0863 17.756L17.8768 16.7782L17.0863 16.9476V17.756H18.0863ZM20.541 17.395L20.4415 16.4H20.4415L20.541 17.395ZM28.1697 18.3335L27.5632 19.1287L27.5707 19.1344L27.5783 19.1399L28.1697 18.3335ZM28.9157 24.2777L29.7106 24.8843L29.7106 24.8843L28.9157 24.2777ZM26.7739 25.505L26.5621 24.5277L25.7739 24.6984V25.505H26.7739ZM26.7739 25.6012H25.7739V26.4034L26.557 26.5774L26.7739 25.6012ZM29.036 26.8045L28.2783 27.457H28.2783L29.036 26.8045ZM29.2285 32.0748L28.3514 31.5944L28.3474 31.602L29.2285 32.0748ZM27.2552 33.639L27.6131 34.5728L27.6199 34.5702L27.6266 34.5675L27.2552 33.639ZM23.1882 33.1925C22.425 33.1925 21.5679 33.1467 20.6148 33.0529L20.419 35.0433C21.4233 35.1421 22.347 35.1925 23.1882 35.1925V33.1925ZM20.6148 33.0529C19.6591 32.9589 18.8529 32.8429 18.1905 32.7074L17.7897 34.6669C18.5391 34.8202 19.4174 34.9448 20.419 35.0433L20.6148 33.0529ZM18.9901 33.6872V31.0159H16.9901V33.6872H18.9901ZM17.8922 32.0111C19.8674 32.2054 21.5311 32.3047 22.8753 32.3047V30.3047C21.6205 30.3047 20.0274 30.2115 18.088 30.0207L17.8922 32.0111ZM22.8753 32.3047C23.8173 32.3047 24.5804 32.2653 25.1207 32.1688L24.7691 30.1999C24.411 30.2639 23.7944 30.3047 22.8753 30.3047V32.3047ZM25.1207 32.1688C25.7506 32.0563 26.3337 31.7736 26.745 31.2448L25.1663 30.0169C25.1284 30.0657 25.0377 30.152 24.7691 30.1999L25.1207 32.1688ZM26.745 31.2448C27.1761 30.6906 27.2926 29.9493 27.2926 29.2351H25.2926C25.2926 29.8043 25.1845 29.9935 25.1663 30.0169L26.745 31.2448ZM27.2926 29.2351C27.2926 28.5811 27.2092 27.9392 26.9369 27.4217L25.167 28.3532C25.2155 28.4454 25.2926 28.7019 25.2926 29.2351H27.2926ZM26.9557 27.4593C26.6728 26.8622 26.1689 26.4864 25.573 26.3051L24.9907 28.2184C25.0717 28.2431 25.1078 28.2682 25.1205 28.2785C25.1306 28.2867 25.1386 28.2953 25.1482 28.3155L26.9557 27.4593ZM25.6236 26.3219C25.1065 26.1339 24.4547 26.0692 23.7417 26.0692V28.0692C24.3763 28.0692 24.7513 28.1329 24.9401 28.2015L25.6236 26.3219ZM23.7417 26.0692H20.8538V28.0692H23.7417V26.0692ZM21.8538 27.0692V24.1814H19.8538V27.0692H21.8538ZM20.8538 25.1814H23.7417V23.1814H20.8538V25.1814ZM23.7417 25.1814C24.6522 25.1814 25.5337 25.057 26.1658 24.6173L25.0236 22.9754C24.9177 23.0491 24.5638 23.1814 23.7417 23.1814V25.1814ZM26.1891 24.6005C26.9544 24.0348 27.1482 23.0727 27.1482 22.184H25.1482C25.1482 22.5164 25.1089 22.7331 25.064 22.864C25.0218 22.9871 24.9865 23.0024 25.0003 22.9922L26.1891 24.6005ZM27.1482 22.184C27.1482 21.488 27.0457 20.7488 26.6297 20.2048L25.041 21.4197C25.0324 21.4085 25.0638 21.4451 25.095 21.5821C25.1257 21.7167 25.1482 21.9126 25.1482 22.184H27.1482ZM26.6674 20.2576C26.2739 19.6674 25.6535 19.3828 25.0186 19.2733L24.6788 21.2442C24.8264 21.2697 24.9112 21.3049 24.955 21.3294C24.9939 21.3513 25.0021 21.3651 25.0033 21.367L26.6674 20.2576ZM25.0186 19.2733C24.4637 19.1776 23.6532 19.1384 22.6347 19.1384V21.1384C23.6376 21.1384 24.3032 21.1795 24.6788 21.2442L25.0186 19.2733ZM22.6347 19.1384C21.9304 19.1384 21.1349 19.1719 20.2505 19.2374L20.3983 21.232C21.2467 21.1691 21.9913 21.1384 22.6347 21.1384V19.1384ZM20.2492 19.2375C19.3873 19.3026 18.6244 19.3762 17.9623 19.459L18.2104 21.4436C18.8318 21.3659 19.5609 21.2952 20.3997 21.2319L20.2492 19.2375ZM19.0863 20.4513V17.756H17.0863V20.4513H19.0863ZM18.2959 18.7338C18.9222 18.5996 19.7014 18.484 20.6405 18.39L20.4415 16.4C19.4554 16.4986 18.5982 16.6236 17.8768 16.7782L18.2959 18.7338ZM20.6405 18.39C21.5758 18.2965 22.4326 18.2506 23.2122 18.2506V16.2506C22.3555 16.2506 21.4314 16.301 20.4415 16.4L20.6405 18.39ZM23.2122 18.2506C25.5325 18.2506 26.8943 18.6184 27.5632 19.1287L28.7761 17.5384C27.552 16.6047 25.6087 16.2506 23.2122 16.2506V18.2506ZM27.5783 19.1399C28.223 19.6127 28.6136 20.3648 28.6136 21.6064H30.6136C30.6136 19.8961 30.0416 18.4662 28.761 17.5271L27.5783 19.1399ZM28.6136 21.6064C28.6136 22.6676 28.3992 23.3061 28.1207 23.671L29.7106 24.8843C30.3627 24.0299 30.6136 22.8875 30.6136 21.6064H28.6136ZM28.1207 23.671C27.8367 24.0432 27.36 24.3548 26.5621 24.5277L26.9856 26.4823C28.113 26.238 29.0642 25.7314 29.7106 24.8843L28.1207 23.671ZM25.7739 25.505V25.6012H27.7739V25.505H25.7739ZM26.557 26.5774C27.4316 26.7718 27.9643 27.0924 28.2783 27.457L29.7938 26.152C29.1131 25.3615 28.1376 24.8799 26.9908 24.6251L26.557 26.5774ZM28.2783 27.457C28.5445 27.7663 28.782 28.3969 28.782 29.572H30.782C30.782 28.2122 30.5222 26.9979 29.7938 26.152L28.2783 27.457ZM28.782 29.572C28.782 30.4469 28.6195 31.105 28.3514 31.5945L30.1056 32.5551C30.5756 31.6969 30.782 30.6865 30.782 29.572H28.782ZM28.3474 31.602C28.142 31.9848 27.7124 32.3791 26.8838 32.7105L27.6266 34.5675C28.7232 34.1289 29.6092 33.4803 30.1097 32.5476L28.3474 31.602ZM26.8973 32.7053C26.1016 33.0103 24.8877 33.1925 23.1882 33.1925V35.1925C24.9862 35.1925 26.4836 35.0057 27.6131 34.5728L26.8973 32.7053Z" fill="white"/>
</g>
<defs>
<filter id="filter0_d_592:2970" x="0" y="0" width="50" height="50" filterUnits="userSpaceOnUse" color-interpolation-filters="sRGB">
<feFlood flood-opacity="0" result="BackgroundImageFix"/>
<feColorMatrix in="SourceAlpha" type="matrix" values="0 0 0 0 0 0 0 0 0 0 0 0 0 0 0 0 0 0 127 0" result="hardAlpha"/>
<feOffset dx="1" dy="1"/>
<feGaussianBlur stdDeviation="2.5"/>
<feComposite in2="hardAlpha" operator="out"/>
<feColorMatrix type="matrix" values="0 0 0 0 0 0 0 0 0 0 0 0 0 0 0 0 0 0 0.25 0"/>
<feBlend mode="normal" in2="BackgroundImageFix" result="effect1_dropShadow_592:2970"/>
<feBlend mode="normal" in="SourceGraphic" in2="effect1_dropShadow_592:2970" result="shape"/>
</filter>
</defs>
</svg>
