<svg width="50" height="50" viewBox="0 0 50 50" fill="none" xmlns="http://www.w3.org/2000/svg">
<g filter="url(#filter0_d_592:2964)">
<circle cx="24" cy="24" r="18.5" stroke="#666666" stroke-width="3"/>
<path d="M21.3727 31.064H29.8917V34H18.0517V31.786C18.0517 30.4063 18.1078 29.3715 18.2201 28.6816C18.3324 27.9917 18.5811 27.4142 18.9661 26.9489C19.3672 26.4836 20.009 26.0745 20.8914 25.7216L21.4449 25.505C22.1508 25.2002 23.2257 24.759 24.6696 24.1814C25.2151 23.9728 25.6001 23.7883 25.8247 23.6279C26.0654 23.4514 26.2258 23.2509 26.306 23.0263C26.4023 22.7856 26.4504 22.4407 26.4504 21.9915C26.4504 21.4299 26.3542 21.0208 26.1616 20.7641C25.9691 20.5074 25.6402 20.339 25.175 20.2588C24.7257 20.1785 24.0198 20.1384 23.0572 20.1384C22.5117 20.1384 21.7978 20.1705 20.9154 20.2347C20.033 20.2989 19.1907 20.3871 18.3886 20.4994V17.78C19.1266 17.6196 20.033 17.4913 21.1079 17.395C22.1989 17.2987 23.2016 17.2506 24.1161 17.2506C25.3354 17.2506 26.3542 17.3549 27.1724 17.5635C27.9906 17.772 28.6484 18.2132 29.1457 18.887C29.6431 19.5448 29.8917 20.5074 29.8917 21.7749C29.8917 22.7535 29.7875 23.5557 29.5789 24.1814C29.3703 24.791 29.0575 25.2804 28.6404 25.6494C28.2232 26.0184 27.6697 26.3392 26.9799 26.612C25.6964 27.1254 24.8942 27.4462 24.5733 27.5746L22.6722 28.3206C22.3834 28.4329 22.1588 28.5372 21.9984 28.6335C21.854 28.7137 21.7417 28.818 21.6614 28.9463C21.5491 29.1067 21.4689 29.3073 21.4208 29.5479C21.3887 29.7725 21.3727 30.0774 21.3727 30.4624V31.064Z" fill="#666666"/>
<path d="M21.3727 31.064H20.3727V32.064H21.3727V31.064ZM29.8917 31.064H30.8917V30.064H29.8917V31.064ZM29.8917 34V35H30.8917V34H29.8917ZM18.0517 34H17.0517V35H18.0517V34ZM18.2201 28.6816L17.2331 28.5209L18.2201 28.6816ZM18.9661 26.9489L18.2087 26.296L18.2022 26.3036L18.1957 26.3113L18.9661 26.9489ZM20.8914 25.7216L20.5269 24.7903L20.52 24.7931L20.8914 25.7216ZM21.4449 25.505L21.8093 26.4362L21.8254 26.4299L21.8413 26.423L21.4449 25.505ZM24.6696 24.1814L24.3125 23.2473L24.3053 23.2501L24.2982 23.2529L24.6696 24.1814ZM25.8247 23.6279L26.406 24.4417L26.4161 24.4343L25.8247 23.6279ZM26.306 23.0263L25.3776 22.6549L25.3706 22.6723L25.3643 22.6899L26.306 23.0263ZM26.1616 20.7641L25.3616 21.3641L25.3616 21.3641L26.1616 20.7641ZM25.175 20.2588L24.9992 21.2432L25.0051 21.2442L25.175 20.2588ZM20.9154 20.2347L20.8429 19.2373H20.8429L20.9154 20.2347ZM18.3886 20.4994H17.3886V21.6492L18.5272 21.4898L18.3886 20.4994ZM18.3886 17.78L18.1761 16.8029L17.3886 16.9741V17.78H18.3886ZM21.1079 17.395L21.0201 16.3989L21.0187 16.399L21.1079 17.395ZM27.1724 17.5635L26.9254 18.5325L27.1724 17.5635ZM29.1457 18.887L28.3411 19.4809L28.3481 19.4902L29.1457 18.887ZM29.5789 24.1814L30.5251 24.5051L30.5276 24.4976L29.5789 24.1814ZM28.6404 25.6494L27.9778 24.9004L28.6404 25.6494ZM26.9799 26.612L26.6122 25.682L26.6085 25.6835L26.9799 26.612ZM24.5733 27.5746L24.9386 28.5055L24.9447 28.5031L24.5733 27.5746ZM22.6722 28.3206L23.0346 29.2526L23.0375 29.2515L22.6722 28.3206ZM21.9984 28.6335L22.484 29.5076L22.4986 29.4995L22.5129 29.4909L21.9984 28.6335ZM21.6614 28.9463L22.4807 29.5198L22.4956 29.4984L22.5094 29.4763L21.6614 28.9463ZM21.4208 29.5479L20.4402 29.3518L20.4348 29.379L20.4308 29.4065L21.4208 29.5479ZM21.3727 32.064H29.8917V30.064H21.3727V32.064ZM28.8917 31.064V34H30.8917V31.064H28.8917ZM29.8917 33H18.0517V35H29.8917V33ZM19.0517 34V31.786H17.0517V34H19.0517ZM19.0517 31.786C19.0517 30.4189 19.1082 29.4498 19.2071 28.8423L17.2331 28.5209C17.1074 29.2931 17.0517 30.3937 17.0517 31.786H19.0517ZM19.2071 28.8423C19.2954 28.2998 19.4816 27.8945 19.7365 27.5865L18.1957 26.3113C17.6806 26.9338 17.3694 27.6836 17.2331 28.5209L19.2071 28.8423ZM19.7235 27.6018C19.978 27.3066 20.4554 26.973 21.2627 26.65L20.52 24.7931C19.5626 25.1761 18.7564 25.6606 18.2087 26.296L19.7235 27.6018ZM21.2558 26.6528L21.8093 26.4362L21.0805 24.5737L20.527 24.7903L21.2558 26.6528ZM21.8413 26.423C22.5342 26.1238 23.5988 25.6867 25.041 25.1099L24.2982 23.2529C22.8525 23.8312 21.7673 24.2765 21.0484 24.5869L21.8413 26.423ZM25.0267 25.1154C25.5838 24.9024 26.0709 24.681 26.406 24.4416L25.2435 22.8142C25.1293 22.8957 24.8463 23.0432 24.3125 23.2473L25.0267 25.1154ZM26.4161 24.4343C26.7773 24.1694 27.0852 23.8178 27.2478 23.3626L25.3643 22.6899C25.3642 22.6901 25.361 22.7 25.3447 22.7204C25.3274 22.742 25.294 22.777 25.2334 22.8215L26.4161 24.4343ZM27.2345 23.3977C27.4005 22.9826 27.4504 22.4885 27.4504 21.9915H25.4504C25.4504 22.3929 25.404 22.5887 25.3776 22.6549L27.2345 23.3977ZM27.4504 21.9915C27.4504 21.3581 27.3499 20.6819 26.9616 20.1641L25.3616 21.3641C25.3537 21.3536 25.3789 21.3826 25.4048 21.4925C25.4305 21.6018 25.4504 21.7638 25.4504 21.9915H27.4504ZM26.9616 20.1641C26.5571 19.6247 25.9446 19.3767 25.3449 19.2733L25.0051 21.2442C25.3358 21.3013 25.3811 21.3901 25.3616 21.3641L26.9616 20.1641ZM25.3508 19.2743C24.8093 19.1776 24.0289 19.1384 23.0572 19.1384V21.1384C24.0107 21.1384 24.6422 21.1794 24.9992 21.2432L25.3508 19.2743ZM23.0572 19.1384C22.4774 19.1384 21.7366 19.1723 20.8429 19.2373L20.988 21.2321C21.859 21.1687 22.5461 21.1384 23.0572 21.1384V19.1384ZM20.8429 19.2373C19.9404 19.303 19.0759 19.3934 18.2499 19.5091L18.5272 21.4898C19.3055 21.3808 20.1257 21.2948 20.988 21.2321L20.8429 19.2373ZM19.3886 20.4994V17.78H17.3886V20.4994H19.3886ZM18.601 18.7572C19.2852 18.6085 20.1477 18.485 21.1971 18.391L21.0187 16.399C19.9184 16.4975 18.9679 16.6307 18.1761 16.8029L18.601 18.7572ZM21.1958 18.3911C22.2631 18.297 23.236 18.2506 24.1161 18.2506V16.2506C23.1672 16.2506 22.1347 16.3005 21.0201 16.3989L21.1958 18.3911ZM24.1161 18.2506C25.2855 18.2506 26.2149 18.3514 26.9254 18.5325L27.4194 16.5944C26.4935 16.3584 25.3853 16.2506 24.1161 16.2506V18.2506ZM26.9254 18.5325C27.522 18.6846 27.982 18.9944 28.3412 19.4809L29.9503 18.2932C29.3147 17.4321 28.4592 16.8595 27.4194 16.5944L26.9254 18.5325ZM28.3481 19.4902C28.6604 19.9032 28.8917 20.615 28.8917 21.7749H30.8917C30.8917 20.3999 30.6258 19.1864 29.9434 18.2839L28.3481 19.4902ZM28.8917 21.7749C28.8917 22.6929 28.7926 23.378 28.6302 23.8652L30.5276 24.4976C30.7823 23.7334 30.8917 22.8142 30.8917 21.7749H28.8917ZM28.6327 23.8577C28.4714 24.3294 28.246 24.6631 27.9778 24.9004L29.3029 26.3984C29.869 25.8976 30.2693 25.2527 30.5251 24.5051L28.6327 23.8577ZM27.9778 24.9004C27.6712 25.1715 27.2277 25.4387 26.6122 25.682L27.3475 27.5419C28.1117 27.2398 28.7752 26.8652 29.3029 26.3984L27.9778 24.9004ZM26.6085 25.6835C25.325 26.1969 24.5228 26.5178 24.2019 26.6461L24.9447 28.5031C25.2656 28.3747 26.0678 28.0538 27.3512 27.5405L26.6085 25.6835ZM24.208 26.6437L22.3069 27.3897L23.0375 29.2515L24.9386 28.5055L24.208 26.6437ZM22.3097 27.3886C21.9977 27.51 21.7139 27.6379 21.4839 27.776L22.5129 29.4909C22.6037 29.4364 22.7691 29.3559 23.0346 29.2526L22.3097 27.3886ZM21.5127 27.7593C21.2342 27.914 20.9914 28.1315 20.8134 28.4163L22.5094 29.4763C22.5023 29.4878 22.4939 29.4976 22.4863 29.5046C22.479 29.5113 22.4768 29.5116 22.484 29.5076L21.5127 27.7593ZM20.8422 28.3728C20.6332 28.6714 20.5088 29.0088 20.4402 29.3518L22.4014 29.7441C22.429 29.6058 22.465 29.5421 22.4807 29.5198L20.8422 28.3728ZM20.4308 29.4065C20.389 29.6991 20.3727 30.0578 20.3727 30.4624H22.3727C22.3727 30.097 22.3884 29.846 22.4107 29.6894L20.4308 29.4065ZM20.3727 30.4624V31.064H22.3727V30.4624H20.3727Z" fill="white"/>
</g>
<defs>
<filter id="filter0_d_592:2964" x="0" y="0" width="50" height="50" filterUnits="userSpaceOnUse" color-interpolation-filters="sRGB">
<feFlood flood-opacity="0" result="BackgroundImageFix"/>
<feColorMatrix in="SourceAlpha" type="matrix" values="0 0 0 0 0 0 0 0 0 0 0 0 0 0 0 0 0 0 127 0" result="hardAlpha"/>
<feOffset dx="1" dy="1"/>
<feGaussianBlur stdDeviation="2.5"/>
<feComposite in2="hardAlpha" operator="out"/>
<feColorMatrix type="matrix" values="0 0 0 0 0 0 0 0 0 0 0 0 0 0 0 0 0 0 0.25 0"/>
<feBlend mode="normal" in2="BackgroundImageFix" result="effect1_dropShadow_592:2964"/>
<feBlend mode="normal" in="SourceGraphic" in2="effect1_dropShadow_592:2964" result="shape"/>
</filter>
</defs>
</svg>
