<svg width="88" height="90" viewBox="0 0 88 90" fill="none" xmlns="http://www.w3.org/2000/svg">
<path d="M48.611 76.1065C48.83 76.2175 49.064 76.2715 49.295 76.2715C49.838 76.2715 50.366 75.9745 50.63 75.4555C51.008 74.7175 50.717 73.8145 49.979 73.4365C46.313 71.5555 41.69 71.5555 38.021 73.4365C37.283 73.8145 36.992 74.7175 37.37 75.4555C37.745 76.1905 38.651 76.4845 39.389 76.1065C42.212 74.6605 45.788 74.6605 48.611 76.1065ZM19.181 79.4995C15.197 79.4995 11.954 82.6945 11.954 86.6245C11.954 87.4525 12.626 88.1245 13.454 88.1245C14.285 88.1245 14.954 87.4525 14.954 86.6245C14.954 84.3505 16.85 82.4995 19.181 82.4995C20.009 82.4995 20.681 81.8275 20.681 80.9995C20.681 80.1715 20.009 79.4995 19.181 79.4995ZM47.03 84.0235C44.534 84.0235 42.5 86.0305 42.5 88.4995C42.5 89.3275 43.172 89.9995 44 89.9995C44.828 89.9995 45.5 89.3275 45.5 88.4995C45.5 87.6865 46.19 87.0235 47.033 87.0235C47.876 87.0235 48.563 87.6865 48.563 88.4995C48.563 89.3275 49.235 89.9995 50.063 89.9995C50.891 89.9995 51.563 89.3275 51.56 88.4995C51.56 86.0305 49.526 84.0235 47.03 84.0235ZM38.126 80.6605C36.761 79.9015 35.21 79.4995 33.635 79.4995C28.598 79.4995 24.5 83.5375 24.5 88.4995C24.5 89.3275 25.172 89.9995 26 89.9995C26.828 89.9995 27.5 89.3275 27.5 88.4995C27.5 85.1905 30.251 82.4995 33.635 82.4995C34.7 82.4995 35.75 82.7695 36.668 83.2825C37.394 83.6845 38.303 83.4235 38.708 82.7005C39.11 81.9775 38.849 81.0625 38.126 80.6605ZM83.663 79.7725C83.675 79.5595 83.681 79.3435 83.681 79.1275C83.681 73.1305 78.725 68.2525 72.635 68.2525C68.87 68.2525 65.48 70.0915 63.467 73.0915C62.693 72.5035 61.757 72.1285 60.758 72.0295C60.767 71.8945 60.77 71.7625 60.77 71.6275C60.77 67.6975 57.53 64.5025 53.543 64.5025C52.694 64.5025 51.866 64.6465 51.083 64.9255C50.438 62.9455 49.988 61.2115 49.7 59.9995H53C53.483 59.9995 53.936 59.7685 54.218 59.3785C54.497 58.9855 54.575 58.4815 54.422 58.0255L52.079 50.9995H53C53.759 50.9995 54.362 50.4235 54.461 49.6915C58.334 50.5885 61.895 54.8395 63.611 59.0635C63.842 59.6365 64.4 59.9995 65 59.9995C65.096 59.9995 65.189 59.9905 65.288 59.9725C65.993 59.8345 66.5 59.2165 66.5 58.4995C66.5 47.9695 62.384 37.3225 54.5 36.1195V16.2685C54.5 9.58753 45.425 0.788529 45.038 0.419529C44.456 -0.141471 43.541 -0.141471 42.959 0.419529C42.575 0.788529 33.5 9.58753 33.5 16.2685V36.1195C25.619 37.3225 21.5 47.9665 21.5 58.4995C21.5 59.2165 22.007 59.8345 22.712 59.9725C22.811 59.9905 22.904 59.9995 23 59.9995C23.6 59.9995 24.158 59.6365 24.389 59.0635C26.105 54.8395 29.666 50.5885 33.539 49.6915C33.638 50.4235 34.241 50.9995 35 50.9995H35.918L33.578 58.0225C33.422 58.4815 33.5 58.9855 33.782 59.3755C34.064 59.7685 34.517 59.9995 35 59.9995H38.3C38.012 61.2115 37.562 62.9455 36.917 64.9225C36.137 64.6435 35.306 64.4995 34.457 64.4995C30.473 64.4995 27.23 67.6945 27.23 71.6245C27.23 71.7595 27.236 71.8945 27.242 72.0265C26.24 72.1255 25.307 72.5005 24.533 73.0885C22.517 70.0885 19.127 68.2495 15.365 68.2495C9.272 68.2495 4.319 73.1275 4.319 79.1245C4.319 79.3165 4.325 79.5115 4.334 79.7065C2.123 80.3425 0.5 82.3645 0.5 84.7495C0.5 87.6445 2.885 89.9995 5.819 89.9995C6.647 89.9995 7.319 89.3275 7.319 88.4995C7.319 87.6715 6.647 86.9995 5.819 86.9995C4.541 86.9995 3.5 85.9915 3.5 84.7495C3.5 83.5495 4.472 82.5655 5.687 82.4995C5.783 82.5175 5.882 82.5325 5.951 82.5355C6.467 82.5595 6.86 82.3585 7.16 82.0045C7.457 81.6505 7.577 81.1795 7.481 80.7265C7.37 80.1955 7.313 79.6555 7.313 79.1215C7.313 74.7805 10.922 71.2465 15.359 71.2465C18.71 71.2465 21.653 73.2415 22.856 76.3285C23.078 76.8955 23.618 77.2705 24.227 77.2825C24.881 77.2975 25.388 76.9375 25.631 76.3795C26.099 75.2995 27.251 74.6455 28.625 75.1735C29.189 75.3895 29.822 75.2515 30.242 74.8165C30.659 74.3845 30.779 73.7455 30.545 73.1905C30.335 72.6895 30.227 72.1615 30.227 71.6245C30.227 69.3505 32.123 67.4995 34.454 67.4995C35.345 67.4995 36.194 67.7665 36.917 68.2675C37.298 68.5345 37.784 68.6065 38.231 68.4685C38.678 68.3275 39.029 67.9855 39.188 67.5475C40.346 64.3285 41.039 61.5295 41.378 59.9995H46.619C46.958 61.5295 47.654 64.3315 48.812 67.5505C48.968 67.9885 49.322 68.3305 49.769 68.4715C50.213 68.6095 50.702 68.5405 51.083 68.2705C51.8 67.7695 52.649 67.5025 53.54 67.5025C55.871 67.5025 57.767 69.3535 57.767 71.6275C57.767 72.1645 57.662 72.6925 57.449 73.1935C57.215 73.7485 57.335 74.3875 57.752 74.8195C58.175 75.2515 58.808 75.3955 59.369 75.1765C60.743 74.6425 61.895 75.3025 62.363 76.3825C62.603 76.9405 63.176 77.2855 63.767 77.2855C64.376 77.2735 64.916 76.8985 65.138 76.3315C66.341 73.2445 69.284 71.2495 72.635 71.2495C77.072 71.2495 80.681 74.7835 80.681 79.1245C80.681 79.6585 80.624 80.1985 80.513 80.7295C80.417 81.1825 80.534 81.6535 80.834 82.0075C81.119 82.3465 81.539 82.5385 81.98 82.5385C82.061 82.5355 82.178 82.5265 82.304 82.5025C83.525 82.5655 84.5 83.5495 84.5 84.7495C84.5 85.9915 83.459 86.9995 82.181 86.9995C81.353 86.9995 80.681 87.6715 80.681 88.4995C80.681 89.3275 81.353 89.9995 82.181 89.9995C85.115 89.9995 87.5 87.6445 87.5 84.7495C87.5 82.4125 85.943 80.4265 83.663 79.7725ZM54.5 39.2215C58.775 40.2685 61.733 45.6835 62.918 52.0945C60.662 49.3375 57.737 47.1595 54.5 46.6315V39.2215ZM33.5 46.6285C30.26 47.1565 27.338 49.3315 25.082 52.0915C26.267 45.6805 29.225 40.2685 33.5 39.2185V46.6285ZM44 3.63253C45.869 5.59753 48.599 8.87053 50.198 11.9995H37.802C39.401 8.87053 42.131 5.59753 44 3.63253ZM36.5 16.2685C36.5 15.8665 36.578 15.4345 36.671 14.9995H51.329C51.422 15.4345 51.5 15.8665 51.5 16.2685V47.9995H36.5V16.2685ZM37.082 56.9995L39.08 50.9995H48.917L50.918 56.9995H37.082ZM44 23.9995C43.172 23.9995 42.5 24.6715 42.5 25.4995C42.5 26.3275 43.172 26.9995 44 26.9995C44.828 26.9995 45.5 26.3275 45.5 25.4995C45.5 24.6715 44.828 23.9995 44 23.9995ZM68.819 79.4995C67.991 79.4995 67.319 80.1715 67.319 80.9995C67.319 81.8275 67.991 82.4995 68.819 82.4995C71.15 82.4995 73.046 84.3505 73.046 86.6245C73.046 87.4525 73.718 88.1245 74.546 88.1245C75.374 88.1245 76.046 87.4525 76.046 86.6245C76.046 82.6945 72.803 79.4995 68.819 79.4995ZM54.365 79.4995C53.537 79.4995 52.865 80.1715 52.865 80.9995C52.865 81.8275 53.537 82.4995 54.365 82.4995C57.749 82.4995 60.5 85.1905 60.5 88.4995C60.5 89.3275 61.172 89.9995 62 89.9995C62.828 89.9995 63.5 89.3275 63.5 88.4995C63.5 83.5375 59.402 79.4995 54.365 79.4995Z" fill="#FF2473"/>
</svg>
