<svg width="90" height="93" viewBox="0 0 90 93" fill="none" xmlns="http://www.w3.org/2000/svg">
<path fill-rule="evenodd" clip-rule="evenodd" d="M78.5763 20.3774C78.2676 20.3774 77.6501 20.0686 77.3413 20.0686C76.7238 20.0686 76.4151 20.0686 76.1063 20.3774L68.3876 28.0961C68.3876 28.4048 68.0789 29.0223 68.0789 29.331V91.0806C68.0789 92.0069 68.6964 92.6244 69.6226 92.6244H81.9726C82.8988 92.6244 83.5163 92.0069 83.5163 91.0806V26.2436C83.5163 25.6261 83.5163 25.3173 83.2075 25.0086L78.5763 20.3774ZM80.4288 89.5369H71.1664V29.9485L77.3413 23.7736L80.4288 26.8611V89.5369ZM17.753 49.3997C17.1355 49.3997 16.518 49.3997 15.9005 50.0172L10.9605 54.9571L5.71184 49.7084C5.40309 49.3997 4.78559 49.0909 4.1681 49.3997C3.5506 49.7084 3.24185 50.3259 3.24185 50.9434V91.0806C3.24185 92.0069 3.85935 92.6244 4.78559 92.6244H17.1355C18.0618 92.6244 18.6792 92.0069 18.6792 91.0806V50.9434C18.6792 50.3259 18.3705 49.7084 17.753 49.3997ZM15.5918 89.5369H6.32933L6.63808 54.6484L10.0343 58.0446C10.6518 58.6621 11.578 58.6621 12.1955 58.0446L15.5918 54.6484V89.5369ZM87.53 0.308748C87.2213 0 86.9125 0 86.6038 0H75.7976C75.1801 0 74.5626 0.926244 74.2539 1.23499C73.9451 1.54374 74.2539 2.46998 74.5626 2.77873L79.5026 7.7187L63.4477 24.0823L55.4202 15.7461C55.1115 15.4374 54.494 15.4374 54.1852 15.4374C53.5678 15.4374 53.259 15.7461 53.259 16.0549L41.8353 30.2573L33.8079 21.9211C33.4991 21.6124 32.8816 21.6124 32.5729 21.6124C31.9554 21.6124 31.6467 21.9211 31.3379 22.2298L10.9605 45.6947L2.62436 37.6672C2.00686 37.0497 1.08062 37.0497 0.463122 37.6672C-0.154374 38.2847 -0.154374 39.211 0.463122 39.8285L9.72556 49.0909C10.0343 49.0909 10.6518 49.3997 10.9605 49.3997C11.578 49.3997 11.8868 49.0909 12.1955 48.7822L32.5729 25.3173L40.6003 33.6535C40.9091 33.9623 41.5266 33.9623 41.8353 33.9623C42.4528 33.9623 42.7616 33.6535 42.7616 33.3448L54.1852 19.1424L62.2127 27.4786C62.8302 28.0961 63.7564 28.0961 64.3739 27.4786L81.6638 9.87993L86.9125 15.1286C87.2213 15.1286 87.8388 15.4374 88.1475 15.4374C88.4563 15.4374 88.4563 15.4374 89.0738 15.4374C89.6912 15.1286 90 14.5111 90 13.8937V1.54374C90 0.617496 88.4563 -0.308748 87.53 0.308748ZM86.6038 10.1887L79.5026 3.08748H86.6038V10.1887ZM55.4202 25.0086C55.1115 24.6998 54.494 24.6998 54.1852 24.6998C53.5678 24.6998 53.259 25.0086 52.9503 25.3173L46.7753 34.5798C46.4666 34.8885 46.4666 35.1973 46.4666 35.506V91.0806C46.4666 92.0069 47.084 92.6244 48.0103 92.6244H60.3602C61.2864 92.6244 61.9039 92.0069 61.9039 91.0806V32.4185C61.9039 31.801 61.9039 31.4923 61.5952 31.1835L55.4202 25.0086ZM58.8165 89.5369H49.554V36.1235L54.494 28.7136L58.8165 33.036V89.5369ZM39.9828 38.5935C39.9828 37.976 39.9828 37.6672 39.6741 37.3585L33.4991 31.1835C32.8816 30.566 31.9554 30.566 31.3379 31.1835L25.163 37.3585C25.163 37.6672 24.8542 38.2847 24.8542 38.5935V91.0806C24.8542 92.0069 25.4717 92.6244 26.3979 92.6244H38.7479C39.6741 92.6244 40.2916 92.0069 39.9828 91.0806V38.5935ZM37.2041 89.5369H27.9417V39.211L32.5729 34.5798L37.2041 39.211V89.5369Z" fill="#FF2473"/>
</svg>
