<svg width="90" height="90" viewBox="0 0 90 90" fill="none" xmlns="http://www.w3.org/2000/svg">
<path d="M15.9 76.5C15.6 76.5 15 76.2 15 76.2C6.3 67.8 1.5 57 1.5 45C1.5 44.1 2.1 43.5 3 43.2C8.1 42.6 12.9 41.4 17.7 39C18 39 18.3 39 18.9 39.3C19.5 39.6 19.5 39.9 19.8 40.2C20.1 42 21.9 43.5 24 43.5C25.5 43.5 27 42.6 27.9 41.4C28.2 40.8 29.1 40.5 29.7 40.8C35.4 42.9 41.7 43.8 47.7 43.5H48C48.9 43.5 49.5 43.8 49.5 44.7C50.1 46.8 51.9 48 54 48.3C54.9 48.3 55.5 48.9 55.8 49.5C55.8 50.4 56.1 51.3 56.1 52.2C56.1 53.1 55.8 53.7 54.9 54C52.5 54.6 50.1 55.2 48 56.1C47.4 56.4 46.5 56.1 46.2 55.5C45.3 54 43.8 53.1 42.3 53.1C39.9 53.1 37.8 55.2 37.8 57.6C37.8 58.5 38.1 59.1 38.4 60C38.7 60.6 38.7 61.5 38.1 62.1C36.3 63.3 34.5 64.8 33 66.6C30.6 69 28.2 72 26.4 75C26.1 75.3 25.8 75.6 25.5 75.6C25.2 75.6 24.6 75.6 24.3 75.3C23.7 74.7 22.8 74.4 21.6 74.4C20.1 74.4 18.6 75.3 17.7 76.8C16.8 76.2 16.5 76.5 15.9 76.5ZM4.5 46.2C4.8 56.4 8.7 65.7 15.6 72.9C17.7 70.5 21.6 69.9 24.3 71.4C26.1 68.4 28.2 66 30.6 63.6C32.1 62.1 33.6 60.9 35.1 59.7C34.8 58.8 34.5 57.9 34.5 57C34.5 52.8 37.8 49.5 42 49.5C44.4 49.5 46.5 50.7 48 52.5C49.8 51.9 51.3 51.3 53.1 51C50.4 50.7 48.3 48.9 47.4 46.5C41.4 46.8 35.7 45.9 30 44.1C28.5 45.6 26.7 46.8 24.3 46.8C21.6 46.8 18.9 45.3 17.7 42.9C13.2 44.4 9 45.6 4.5 46.2Z" fill="#FF2473"/>
<path d="M3 46.2C2.7 46.2 2.4 46.2 2.1 45.9C1.8 45.6 1.5 45.3 1.5 44.7C1.5 37.8 3 31.5 6.3 25.2C6.6 24.6 6.9 24.3 7.5 24.3C8.1 24.3 8.4 24.6 8.7 24.9C11.7 28.8 15.3 32.4 19.2 35.1C19.8 35.4 20.1 36.3 19.8 36.9C19.5 37.5 19.5 38.1 19.5 38.7C19.5 39 19.5 39.3 19.8 39.9C20.1 40.5 19.5 41.4 18.9 41.7C13.8 44.4 8.4 45.9 3 46.2ZM7.8 28.8C5.7 33.3 4.8 38.1 4.5 42.9C8.7 42.3 12.6 41.1 16.5 39.6C16.5 39.3 16.5 39.3 16.5 39C16.5 38.4 16.5 37.8 16.8 37.2C13.5 34.8 10.5 32.1 7.8 28.8Z" fill="#FF2473"/>
<path d="M45 46.4997C39.3 46.4997 33.9 45.5997 28.5 43.4997C28.2 43.1997 27.6 42.8997 27.6 42.5997C27.6 42.2997 27.6 41.6997 27.6 41.3997C28.2 40.7997 28.2 39.8997 28.2 38.9997C28.2 37.7997 27.6 36.5997 26.7 35.6997C26.4 35.3997 26.1 35.0997 26.1 34.4997C26.1 34.1997 26.4 33.5997 26.7 33.2997C27.9 32.0997 29.1 31.1997 30 30.2997C37.5 22.7997 42 13.1997 42.9 2.69971C42.9 1.79971 43.5 1.49971 44.4 1.19971C51.3 1.19971 57.6 2.69971 63.6 5.69971C64.2 5.99971 64.5 6.89971 64.5 7.49971C64.2 8.09971 64.2 8.39971 64.2 8.69971C64.2 10.1997 65.1 11.6997 66.3 12.5997C66.6 12.8997 66.9 13.1997 66.9 13.7997C66.9 14.0997 66.9 14.6997 66.6 14.9997C60.9 21.2997 57.3 29.0997 55.8 37.7997C55.8 38.6997 54.9 39.2997 54 38.9997C51.6 38.9997 49.5 41.0997 49.5 43.4997C49.5 43.7997 49.5 44.0997 49.5 44.3997C49.5 44.6997 49.5 45.2997 49.2 45.5997C48.9 45.8997 48.6 46.1997 48 46.1997H47.7C46.8 46.4997 45.9 46.4997 45 46.4997ZM31.2 41.3997C36.3 42.8997 41.4 43.7997 46.5 43.4997C46.5 39.5997 49.5 36.2997 53.4 35.9997C54.9 27.8997 58.5 20.3997 63.6 14.3997C62.1 12.8997 61.5 11.0997 61.5 8.99971C61.5 8.69971 61.5 8.39971 61.5 8.09971C56.7 5.99971 51.3 4.79971 46.2 4.49971C45 14.9997 39.9 24.8997 32.4 32.3997C31.8 32.9997 30.9 33.8997 30 34.4997C30.9 35.6997 31.5 37.1997 31.5 38.9997C31.5 39.8997 31.5 40.4997 31.2 41.3997Z" fill="#FF2473"/>
<path d="M18.6 38.1C18.3 38.1 18 38.1 17.7 37.8C13.2 34.8 9.59995 31.2 6.29995 27C5.99995 26.4 5.99995 25.8 6.29995 25.2C13.8 10.5 28.5 1.5 44.7 1.5C45.2999 1.5 45.6 1.8 45.9 2.1C46.2 2.4 46.2 2.7 46.2 3.3C45 14.4 40.2 24.6 32.4 32.7C31.5 33.6 30.3 34.8 28.8 36C28.2 36 27.6 36 27 35.7C26.4 35.1 25.5 34.5 24 34.5C22.2 34.5 20.7 35.7 19.8 37.2C19.5 37.5 19.2 37.8 18.9 38.1H18.6ZM9.29995 25.8C11.7 29.1 14.7 31.8 18 34.5C20.1 31.5 24.6 30.6 27.9 32.7C28.8 31.8 29.7 31.2 30.3 30.3C37.2 23.4 41.7 14.4 43.2 4.5C28.7999 5.1 16.2 13.2 9.29995 25.8Z" fill="#FF2473"/>
<path d="M85.5 57.6C85.2 57.6 84.9 57.6 84.9 57.3C75.6 52.8 65.1 51.3 54.9 53.4C54.6 53.4 54 53.4 53.7 53.1C53.4 52.8 53.1 52.5 53.1 52.2C53.1 51.3 52.8 50.4 52.8 49.5C52.8 49.2 52.8 48.6 53.1 48.3C53.4 48 53.7 47.7 54.3 47.7C56.7 47.7 58.5 45.6 58.5 43.2C58.5 42.9 58.5 42.6 58.5 42.3C58.5 41.7 58.8 40.8 59.4 40.5C68.1 37.5 75.6 32.1 81.3 24.6C81.6 24.3 82.2 24 82.5 24C83.1 24 83.4 24.3 83.7 24.9C86.7 31.2 88.5 37.8 88.5 44.7C88.5 48.6 87.9 52.2 87 56.1C87 56.4 86.7 57 86.1 57C85.8 57.6 85.8 57.6 85.5 57.6ZM64.5 49.5C71.4 49.5 78.3 51 84.6 53.7C85.2 50.7 85.5 47.7 85.5 44.7C85.5 39 84.3 33.6 82.2 28.5C76.8 35.1 69.6 40.2 61.5 43.2C61.5 45.9 60 48.3 57.6 49.8C60 49.8 62.1 49.5 64.5 49.5Z" fill="#FF2473"/>
<path d="M60 44.0994C59.7 44.0994 59.4 44.0994 59.1 43.7994C58.8 43.4994 58.5 43.1994 58.5 42.8994C58.2 41.0994 56.7 39.2994 54.6 39.2994C54.3 39.2994 53.7 38.9994 53.7 38.6994C53.4 38.3994 53.4 38.0994 53.4 37.4994C54.9 28.4994 58.8 20.0994 64.8 13.1994C65.4 12.5994 66 12.5994 66.6 12.8994C67.2 13.4994 68.1 13.4994 69 13.4994C70.2 13.4994 71.4 12.8994 71.7 12.2994C72.3 11.6994 73.2 11.6994 73.8 12.2994C78 15.8994 81.3 20.3994 83.7 25.1994C84 25.7994 84 26.3994 83.7 26.9994C77.7 35.0994 69.9 40.7994 60.3 44.0994H60ZM56.4 36.2994C58.5 36.8994 60 38.3994 60.9 40.4994C68.7 37.4994 75.6 32.3994 80.7 25.7994C78.6 21.8994 75.9 18.5994 72.6 15.2994C70.8 16.4994 68.1 16.4994 66 15.5994C61.2 21.8994 57.9 28.7994 56.4 36.2994Z" fill="#FF2473"/>
<path d="M44.9999 88.4994C37.7999 88.4994 30.8999 86.6994 24.5999 83.3994C24.2999 83.0994 23.9999 82.7994 23.9999 82.1994C23.9999 81.5994 23.9999 81.2994 24.2999 80.9994C25.1999 80.0994 25.4999 79.1994 25.4999 77.9994C25.4999 76.7994 24.8999 75.2994 23.6999 74.3994C23.0999 73.7994 23.0999 73.1994 23.3999 72.5994C25.4999 69.2994 27.8999 66.2994 30.2999 63.5994C32.0999 61.7994 33.8999 60.2994 35.6999 58.7994C35.9999 58.4994 36.5999 58.4994 36.8999 58.4994C37.1999 58.4994 37.7999 58.7994 37.7999 59.0994C38.6999 60.5994 40.1999 61.1994 41.6999 61.1994C44.0999 61.1994 46.1999 59.0994 46.1999 56.6994C46.1999 56.0994 45.8999 55.4994 45.5999 54.5994C45.2999 54.2994 45.2999 53.6994 45.5999 53.3994C45.8999 53.0994 46.1999 52.7994 46.4999 52.4994C48.8999 51.5994 51.5999 50.6994 53.9999 50.0994C54.2999 50.0994 54.8999 50.0994 55.1999 50.3994C55.4999 50.6994 55.7999 50.9994 55.7999 51.2994C56.9999 59.9994 60.8999 67.7994 66.5999 74.3994C66.8999 74.6994 66.8999 75.2994 66.8999 75.5994C66.8999 75.8994 66.5999 76.4994 66.2999 76.7994C65.0999 77.6994 64.1999 79.1994 64.1999 80.6994C64.1999 80.9994 64.1999 81.5994 64.4999 81.8994C64.7999 82.4994 64.4999 83.3994 63.5999 83.6994C57.8999 86.9994 51.5999 88.4994 44.9999 88.4994ZM27.5999 81.5994C38.3999 86.6994 50.6999 86.9994 61.4999 81.8994C61.4999 81.5994 61.4999 81.2994 61.4999 80.9994C61.4999 78.8994 62.3999 77.0994 63.5999 75.5994C58.1999 69.2994 54.8999 61.7994 53.3999 53.6994C51.8999 53.9994 50.6999 54.5994 49.1999 54.8994C49.4999 55.4994 49.4999 56.0994 49.4999 56.6994C49.4999 60.8994 46.1999 64.1994 41.9999 64.1994C39.8999 64.1994 38.0999 63.2994 36.5999 61.7994C35.0999 62.9994 33.8999 64.1994 32.6999 65.3994C30.5999 67.4994 28.4999 70.1994 26.6999 72.8994C27.8999 74.0994 28.4999 75.8994 28.4999 77.6994C28.4999 79.1994 28.1999 80.3994 27.5999 81.5994Z" fill="#FF2473"/>
<path d="M72.9 78.0001C72.6 78.0001 72.3 78.0001 72 77.7001C71.4 77.1001 70.5 76.8001 69.3 76.8001C68.4 76.8001 67.8 77.1001 66.9 77.4001C66.3 77.7001 65.4 77.7001 65.1 77.1001C58.8 70.2001 54.9 61.5001 53.4 52.5001C53.4 51.6001 53.7 51.0001 54.6 50.7001C65.4 48.3001 76.8 49.8001 86.4 54.9001C87 55.2001 87.3 55.8001 87.3 56.7001C85.2 64.8001 80.4 72.0001 74.1 77.7001C73.5 77.7001 73.2 78.0001 72.9 78.0001ZM69 73.5001C70.2 73.5001 71.7 73.8001 72.6 74.4001C77.7 69.6001 81.6 63.6001 83.7 56.7001C75.3 52.8001 65.7 51.6001 56.4 53.1001C57.9 60.6001 61.2 67.8001 66.3 73.8001C67.2 73.8001 68.1 73.5001 69 73.5001Z" fill="#FF2473"/>
<path d="M72.9 15C72.3 15 72 15 71.7 14.7C71.1 14.1 71.4 13.2 72 12.6C72.9 11.7 73.8 10.5 73.8 9.3C73.8 6.9 71.7 4.8 69.3 4.8C67.2 4.8 65.7 6 65.1 8.1C64.5 8.4 63.6 9 63 8.7C62.1 8.4 61.8 7.5 62.1 6.9C63 3.6 66 1.5 69.3 1.5C73.5 1.5 76.8 4.8 76.8 9C76.8 11.1 75.9001 13.2 74.1 14.7C73.5 15 73.2 15 72.9 15Z" fill="#FF2473"/>
<path d="M69 88.4996C65.7 88.4996 62.7 86.3996 61.8 83.0996C61.5 82.1996 62.1 81.5996 62.7 81.2996C63.6 80.9996 64.2 81.5996 64.5 82.1996C65.1 83.9996 66.9 85.4996 68.7 85.4996C71.1 85.4996 73.2 83.3996 73.2 80.9996C73.2 79.7996 72.6 78.2996 71.4 77.6996C70.8 77.0996 70.8 76.1996 71.1 75.5996C71.7 74.9996 72.6 74.9996 73.2 75.2996C75 76.7996 75.9 78.8996 75.9 80.9996C76.5 85.1996 73.2 88.4996 69 88.4996Z" fill="#FF2473"/>
<path d="M21 85.4993C16.8 85.4993 13.5 82.1993 13.5 77.9993C13.5 76.7993 13.8 75.5993 14.4 74.3993C14.7 73.7993 15.6 73.4993 16.5 73.7993C17.1 74.0993 17.4 74.9993 17.1 75.8993C16.8 76.4993 16.5 77.3993 16.5 77.9993C16.5 80.3993 18.6 82.4993 21 82.4993C22.2 82.4993 23.4 81.8993 24.3 80.9993C24.9 80.3993 25.8 80.3993 26.4 80.9993C27 81.5993 27 82.4993 26.4 83.0993C24.9 84.5993 23.1 85.4993 21 85.4993Z" fill="#FF2473"/>
</svg>
