<svg width="90" height="90" viewBox="0 0 90 90" fill="none" xmlns="http://www.w3.org/2000/svg">
<path d="M48.2435 14.1614C47.9865 14.1614 47.7295 14.0993 47.4893 13.9743L45 12.6657L42.5108 13.9743C41.9594 14.2618 41.3076 14.2155 40.8084 13.8512C40.3072 13.4869 40.06 12.8803 40.1644 12.2698L40.64 9.49802L38.6264 7.53462C38.1823 7.10235 38.0257 6.46725 38.2167 5.87645C38.4078 5.28665 38.909 4.86521 39.5224 4.77561L42.306 4.37092L43.5506 1.84921C43.8244 1.29288 44.3807 0.947266 45 0.947266C45.6194 0.947266 46.1747 1.29288 46.4504 1.84823V1.84921L47.696 4.37092L50.4787 4.77561C51.0921 4.86521 51.5933 5.28665 51.7843 5.87645C51.9754 6.46626 51.8198 7.10137 51.3757 7.53462L49.3611 9.49802L49.8357 12.2698C49.9401 12.8813 49.6939 13.4869 49.1927 13.8512C48.9091 14.057 48.5773 14.1614 48.2435 14.1614ZM40.511 6.62184L42.1465 8.216C42.5276 8.58721 42.7009 9.12188 42.6123 9.64769L42.2253 11.8996L44.2478 10.8362C44.7194 10.588 45.2826 10.588 45.7533 10.8372L47.7738 11.8986L47.3878 9.64769C47.2963 9.12385 47.4706 8.5882 47.8526 8.216L49.4891 6.62184L47.2293 6.29296C46.7006 6.21616 46.2447 5.88433 46.0103 5.40579L45 3.35967L43.9898 5.40874C43.7525 5.88729 43.2976 6.21715 42.7708 6.29296L40.511 6.62184ZM47.7758 4.53535L47.7768 4.53732C47.7768 4.53634 47.7768 4.53634 47.7758 4.53535Z" fill="#898989"/>
<path d="M41.7569 89.053C41.4231 89.053 41.0913 88.9486 40.8087 88.7428C40.3065 88.3785 40.0603 87.7729 40.1647 87.1614L40.6403 84.3896L38.6267 82.4252C38.1836 81.994 38.026 81.3589 38.2171 80.769C38.4081 80.1792 38.9083 79.7568 39.5217 79.6672L42.3063 79.2625L43.551 76.7408C43.8257 76.1845 44.381 75.8389 45.0014 75.8389C45.6217 75.8389 46.177 76.1845 46.4517 76.7408L47.6973 79.2625L50.48 79.6672C51.0944 79.7568 51.5956 80.1792 51.7856 80.769C51.9767 81.3589 51.8201 81.993 51.377 82.4252L49.3624 84.3896L49.837 87.1614C49.9414 87.7729 49.6952 88.3785 49.193 88.7428C48.6909 89.1081 48.037 89.1534 47.4915 88.8649L45.0004 87.5553L42.5112 88.8639C42.2729 88.9899 42.0139 89.053 41.7569 89.053ZM40.5113 81.5125L42.1478 83.1076C42.5279 83.4778 42.7022 84.0125 42.6126 84.5373L42.2266 86.7892L44.2481 85.7268C44.7197 85.4777 45.283 85.4796 45.7536 85.7268L47.7741 86.7892L47.3882 84.5383C47.2976 84.0145 47.4709 83.4788 47.8529 83.1076L49.4894 81.5125L47.2286 81.1836C46.6999 81.1078 46.244 80.7759 46.0096 80.2964L45.0004 78.2503L43.9901 80.2984C43.7528 80.7769 43.2979 81.1068 42.7711 81.1826L40.5113 81.5125ZM47.7761 79.426L47.7771 79.4279C47.7771 79.426 47.7771 79.426 47.7761 79.426Z" fill="#898989"/>
<path d="M4.31128 51.6076C3.97748 51.6076 3.64565 51.5033 3.36305 51.2975C2.86088 50.9332 2.61471 50.3276 2.71909 49.7161L3.19467 46.9443L1.18105 44.9799C0.736972 44.5477 0.580412 43.9126 0.771435 43.3227C0.962459 42.7329 1.46365 42.3115 2.07709 42.2219L4.86071 41.8172L6.10532 39.2955C6.38004 38.7392 6.93637 38.3936 7.55572 38.3936C8.17507 38.3936 8.7314 38.7392 9.00612 39.2945L10.2507 41.8172L13.0343 42.2219C13.6478 42.3115 14.148 42.7339 14.34 43.3227C14.531 43.9126 14.3745 44.5477 13.9304 44.9809L11.9158 46.9433L12.3914 49.7151C12.4957 50.3266 12.2486 50.9322 11.7474 51.2965C11.2472 51.6618 10.5934 51.7091 10.0449 51.4186L7.55473 50.11L5.06552 51.4186C4.82723 51.5446 4.56827 51.6076 4.31128 51.6076ZM3.06568 44.0671L4.70218 45.6623C5.08226 46.0325 5.25655 46.5672 5.16694 47.092L4.78096 49.3439L6.80245 48.2815C7.27312 48.0333 7.83634 48.0343 8.30799 48.2815L10.3285 49.3439L9.94252 47.093C9.85292 46.5672 10.0272 46.0325 10.4083 45.6613L12.0438 44.0662L9.78301 43.7383C9.2572 43.6625 8.80229 43.3316 8.56598 42.855L7.55473 40.805L6.54448 42.854C6.30717 43.3326 5.85226 43.6625 5.32547 43.7383L3.06568 44.0671Z" fill="#898989"/>
<path d="M79.2031 51.6076C78.8693 51.6076 78.5374 51.5033 78.2549 51.2975C77.7517 50.9331 77.5055 50.3276 77.6109 49.7161L78.0855 46.9443L76.0709 44.9809C75.6268 44.5477 75.4712 43.9126 75.6623 43.3227C75.8533 42.7329 76.3545 42.3115 76.9679 42.2219L79.7505 41.8172L80.9961 39.2955C81.2699 38.7402 81.8262 38.3936 82.4465 38.3936C83.0669 38.3936 83.6222 38.7392 83.8969 39.2955L85.1425 41.8172L87.9252 42.2219C88.5386 42.3115 89.0398 42.7329 89.2308 43.3227C89.4218 43.9126 89.2663 44.5477 88.8222 44.9809L86.8076 46.9453L87.2822 49.7171C87.3866 50.3286 87.1404 50.9341 86.6382 51.2985C86.137 51.6638 85.4822 51.7091 84.9367 51.4206L82.4475 50.1119L79.9583 51.4206C79.718 51.5446 79.4601 51.6076 79.2031 51.6076ZM82.4465 48.0954C82.7055 48.0954 82.9635 48.1574 83.1998 48.2815L85.2213 49.3439L84.8353 47.093C84.7447 46.5692 84.918 46.0335 85.3001 45.6613L86.9366 44.0662L84.6758 43.7383C84.147 43.6615 83.6911 43.3296 83.4568 42.8511L82.4475 40.805L81.4363 42.854C81.2039 43.3306 80.748 43.6615 80.2192 43.7383L77.9585 44.0662L79.595 45.6613C79.977 46.0325 80.1493 46.5682 80.0597 47.094L79.6737 49.3439L81.6962 48.2815C81.9286 48.1574 82.1876 48.0954 82.4465 48.0954ZM79.6688 41.9836C79.6688 41.9836 79.6688 41.9846 79.6678 41.9846L79.6688 41.9836ZM85.2223 41.9807L85.2233 41.9826C85.2233 41.9816 85.2233 41.9816 85.2223 41.9807ZM82.1314 40.165V40.1659V40.165Z" fill="#898989"/>
<path d="M23.3796 19.1779C23.0458 19.1779 22.714 19.0736 22.4314 18.8678C21.9292 18.5035 21.6831 17.8969 21.7874 17.2864L22.263 14.5136L20.2494 12.5502C19.8053 12.118 19.6488 11.4829 19.8398 10.893C20.0308 10.3032 20.532 9.88181 21.1454 9.7922L23.9291 9.38849L25.1737 6.86679C25.4484 6.31046 26.0047 5.96484 26.6241 5.96484C27.2434 5.96484 27.7998 6.31046 28.0745 6.8658L29.3191 9.38751L32.1027 9.79122C32.7171 9.88082 33.2173 10.3032 33.4084 10.8921C33.5994 11.4819 33.4428 12.117 32.9987 12.5502L30.9851 14.5136L31.4607 17.2864C31.5651 17.8979 31.3179 18.5035 30.8167 18.8678C30.3156 19.2331 29.6637 19.2794 29.1143 18.9899L26.6251 17.6813L24.1358 18.9899C23.8956 19.1159 23.6366 19.1779 23.3796 19.1779ZM26.6231 15.6667C26.8821 15.6667 27.141 15.7287 27.3773 15.8537L29.3988 16.9162L29.0119 14.6643C28.9223 14.1395 29.0956 13.6038 29.4776 13.2326L31.1131 11.6374L28.8524 11.3105C28.3265 11.2347 27.8707 10.9039 27.6343 10.4263L26.6231 8.37725L25.6128 10.4253C25.3755 10.9039 24.9206 11.2347 24.3938 11.3105L22.134 11.6384L23.7705 13.2336C24.1516 13.6038 24.3249 14.1395 24.2353 14.6643L23.8483 16.9162L25.8708 15.8528C26.1061 15.7287 26.3641 15.6667 26.6231 15.6667Z" fill="#898989"/>
<path d="M15.8152 32.5066C15.5582 32.5066 15.3002 32.4445 15.0609 32.3195L12.5707 31.0099L10.0815 32.3195C9.53206 32.607 8.87924 32.5607 8.37903 32.1964C7.87784 31.8321 7.63069 31.2265 7.73506 30.615L8.21065 27.8432L6.19703 25.8798C5.75197 25.4466 5.59541 24.8105 5.78741 24.2207C5.97942 23.6309 6.47963 23.2104 7.09307 23.1208L9.87571 22.7161L11.1213 20.1934C11.395 19.6381 11.9504 19.2925 12.5707 19.2925C13.191 19.2925 13.7474 19.6381 14.0211 20.1944L15.2657 22.7161L18.0493 23.1208C18.6618 23.2094 19.162 23.6309 19.354 24.2207C19.546 24.8105 19.3895 25.4466 18.9454 25.8798L16.9308 27.8432L17.4064 30.615C17.5107 31.2265 17.2646 31.8321 16.7634 32.1964C16.4808 32.4022 16.149 32.5066 15.8152 32.5066ZM12.5717 28.9953C12.8297 28.9953 13.0877 29.0563 13.323 29.1794L15.3465 30.2438L14.9605 27.9919C14.8709 27.4671 15.0442 26.9324 15.4262 26.5602L17.0617 24.9661L14.801 24.6382C14.2732 24.5614 13.8183 24.2295 13.5829 23.752L12.5727 21.7049L11.5614 23.754C11.3271 24.2305 10.8722 24.5624 10.3444 24.6382L8.08363 24.9661L9.71915 26.5602C10.1002 26.9314 10.2745 27.4661 10.1849 27.9909L9.79792 30.2438L11.8194 29.1804C12.0548 29.0573 12.3137 28.9953 12.5717 28.9953ZM9.79497 22.8825C9.79497 22.8825 9.79398 22.8825 9.79497 22.8825V22.8825ZM15.3484 22.8806C15.3484 22.8816 15.3484 22.8806 15.3484 22.8806V22.8806ZM12.2556 21.0649V21.0658V21.0649Z" fill="#898989"/>
<path d="M60.4802 19.1784C60.1464 19.1784 59.8145 19.0741 59.532 18.8683C59.0288 18.504 58.7826 17.8984 58.888 17.2869L59.3626 14.5141L57.348 12.5507C56.9039 12.1175 56.7483 11.4824 56.9394 10.8926C57.1304 10.3028 57.6316 9.88132 58.245 9.79172L61.0276 9.38801L62.2723 6.8663C62.547 6.30997 63.1033 5.96436 63.7236 5.96436C64.344 5.96436 64.8993 6.30997 65.175 6.8663L66.4196 9.38801L69.2023 9.79172C69.8157 9.88132 70.3169 10.3028 70.5079 10.8926C70.6989 11.4824 70.5434 12.1175 70.0993 12.5507L68.0847 14.5141L68.5593 17.2869C68.6637 17.8984 68.4175 18.504 67.9153 18.8683C67.4131 19.2336 66.7603 19.2789 66.2138 18.9904L63.7246 17.6818L61.2344 18.9904C60.9951 19.1164 60.7362 19.1784 60.4802 19.1784ZM59.2336 11.6389L60.8701 13.2331C61.2521 13.6053 61.4254 14.1409 61.3349 14.6667L60.9489 16.9157L62.9714 15.8533C63.441 15.6061 64.0052 15.6061 64.4759 15.8533L66.4974 16.9157L66.1114 14.6648C66.0199 14.1409 66.1941 13.6053 66.5762 13.2331L68.2127 11.6389L65.9519 11.311C65.4232 11.2342 64.9673 10.9024 64.7329 10.4239L63.7236 8.37775L62.7124 10.4268C62.48 10.9024 62.0241 11.2352 61.4954 11.311L59.2336 11.6389ZM60.9449 9.55441C60.9449 9.5554 60.9449 9.5554 60.9439 9.55638L60.9449 9.55441ZM66.4994 9.55244L66.5004 9.55343C66.5004 9.55343 66.5004 9.55244 66.4994 9.55244ZM64.0397 7.73674L64.0387 7.73772C64.0387 7.73772 64.0387 7.73772 64.0397 7.73674Z" fill="#898989"/>
<path d="M74.1853 32.8845C73.8515 32.8845 73.5196 32.7801 73.236 32.5743C72.7339 32.21 72.4877 31.6044 72.5931 30.993L73.0677 28.2212L71.0531 26.2578C70.609 25.8245 70.4534 25.1894 70.6444 24.5996C70.8355 24.0098 71.3366 23.5884 71.9501 23.4988L74.7327 23.0941L75.9783 20.5724C76.252 20.017 76.8074 19.6714 77.4267 19.6704C77.4277 19.6704 77.4277 19.6704 77.4287 19.6704C78.0481 19.6704 78.6034 20.015 78.8791 20.5704L80.1237 23.0931L82.9073 23.4978C83.5218 23.5874 84.022 24.0098 84.213 24.5996C84.404 25.1894 84.2465 25.8245 83.8024 26.2568L81.7898 28.2192L82.2644 30.991C82.3687 31.6025 82.1226 32.208 81.6214 32.5724C81.1212 32.9377 80.4664 32.984 79.9189 32.6955L77.4297 31.3859L74.9405 32.6955C74.7002 32.8225 74.4423 32.8845 74.1853 32.8845ZM77.4287 29.3732C77.6867 29.3732 77.9437 29.4353 78.18 29.5583L80.2035 30.6227L79.8175 28.3708C79.7259 27.847 79.9002 27.3113 80.2823 26.9391L81.9178 25.345L79.658 25.0171C79.1322 24.9413 78.6763 24.6104 78.44 24.1339L77.4297 22.0838L76.4185 24.1329C76.1821 24.6104 75.7272 24.9413 75.2014 25.0171L72.9406 25.345L74.5772 26.9391C74.9572 27.3094 75.1305 27.8431 75.0429 28.3689L74.6559 30.6227L76.6784 29.5593C76.9118 29.4353 77.1707 29.3732 77.4287 29.3732ZM77.7448 21.4428V21.4438V21.4428Z" fill="#898989"/>
<path d="M8.5814 70.7082C8.24761 70.7082 7.91578 70.6039 7.63318 70.3981C7.13101 70.0337 6.88484 69.4282 6.98921 68.8167L7.4648 66.0449L5.45118 64.0815C5.00612 63.6482 4.84956 63.0122 5.04156 62.4224C5.23357 61.8325 5.73378 61.4121 6.34722 61.3235L9.13084 60.9178L10.3754 58.3961C10.6492 57.8407 11.2045 57.4951 11.8249 57.4941C12.4452 57.4941 13.0005 57.8398 13.2753 58.3961L14.5189 60.9178L17.3035 61.3235C17.9159 61.4121 18.4162 61.8335 18.6082 62.4214C18.8002 63.0122 18.6446 63.6473 18.2005 64.0805L16.1859 66.0449L16.6615 68.8167C16.7659 69.4272 16.5197 70.0328 16.0185 70.3971C15.5163 70.7624 14.8625 70.8097 14.3151 70.5202L11.8258 69.2116L9.33565 70.5202C9.09736 70.6462 8.8384 70.7082 8.5814 70.7082ZM7.33581 63.1677L8.97133 64.7629C9.35239 65.1341 9.52667 65.6688 9.43707 66.1936L9.05108 68.4445L11.0726 67.3821C11.5442 67.1349 12.1055 67.1359 12.5752 67.3801L14.5996 68.4445L14.2136 66.1936C14.124 65.6688 14.2983 65.1341 14.6794 64.7629L16.3149 63.1687L14.0541 62.8389C13.5283 62.763 13.0724 62.4332 12.8371 61.9566L11.8258 59.9075L10.8146 61.9556C10.5783 62.4332 10.1234 62.763 9.59658 62.8389L7.33581 63.1677Z" fill="#898989"/>
<path d="M74.1856 70.3303C73.8518 70.3303 73.5199 70.2259 73.2374 70.0201C72.7342 69.6558 72.488 69.0502 72.5934 68.4388L73.068 65.667L71.0534 63.7026C70.6103 63.2713 70.4537 62.6362 70.6447 62.0464C70.8348 61.4556 71.336 61.0342 71.9494 60.9446L74.733 60.5399L75.9786 58.0182C76.2524 57.4628 76.8077 57.1172 77.4271 57.1162C77.4281 57.1162 77.428 57.1162 77.429 57.1162C78.0484 57.1162 78.6037 57.4618 78.8794 58.0172L80.124 60.5389L82.9077 60.9436C83.5231 61.0332 84.0233 61.4566 84.2133 62.0464C84.4043 62.6362 84.2468 63.2703 83.8027 63.7026L81.7901 65.666L82.2647 68.4378C82.3691 69.0493 82.1229 69.6548 81.6217 70.0191C81.1195 70.3835 80.4687 70.4317 79.9182 70.1412L77.43 68.8326L74.9408 70.1412C74.7015 70.2683 74.4426 70.3303 74.1856 70.3303ZM77.5954 68.746L77.5935 68.747C77.5945 68.747 77.5945 68.746 77.5954 68.746ZM77.428 66.818C77.687 66.818 77.945 66.8801 78.1823 67.0041L80.2038 68.0666L79.8178 65.8156C79.7272 65.2918 79.9005 64.7562 80.2826 64.3849L81.9181 62.7898L79.6583 62.4609C79.1325 62.3861 78.6766 62.0552 78.4403 61.5777L77.43 59.5286L76.4188 61.5767C76.1825 62.0552 75.7275 62.3851 75.2017 62.4609L72.941 62.7898L74.5775 64.3849C74.9575 64.7542 75.1308 65.2889 75.0432 65.8127L74.6562 68.0666L76.6787 67.0041C76.9121 66.8801 77.1701 66.818 77.428 66.818Z" fill="#898989"/>
<path d="M23.379 83.1955C23.0452 83.1955 22.7134 83.0911 22.4308 82.8854C21.9286 82.521 21.6824 81.9155 21.7868 81.304L22.2624 78.5322L20.2488 76.5678C19.8057 76.1365 19.6481 75.5014 19.8391 74.9116C20.0302 74.3218 20.5304 73.8994 21.1438 73.8098L23.9284 73.4051L25.173 70.8834C25.4477 70.3271 26.0031 69.9814 26.6234 69.9814C27.2428 69.9814 27.7991 70.3271 28.0738 70.8834L29.3184 73.4051L32.1021 73.8098C32.7175 73.8994 33.2167 74.3228 33.4087 74.9116C33.5997 75.5014 33.4422 76.1355 32.9981 76.5688L30.9855 78.5322L31.461 81.304C31.5654 81.9155 31.3183 82.521 30.8171 82.8854C30.3159 83.2497 29.664 83.2979 29.1146 83.0075L26.6254 81.6988L24.1362 83.0075C23.8949 83.1325 23.636 83.1955 23.379 83.1955ZM22.1334 75.654L23.7699 77.2492C24.15 77.6194 24.3242 78.1541 24.2346 78.6789L23.8487 80.9308L25.8702 79.8684C26.3418 79.6202 26.9031 79.6222 27.3727 79.8664L29.3972 80.9308L29.0112 78.6799C28.9216 78.1541 29.0959 77.6194 29.477 77.2492L31.1125 75.654L28.8517 75.3252C28.3259 75.2493 27.87 74.9195 27.6337 74.4419L26.6224 72.3929L25.6122 74.4409C25.3749 74.9195 24.92 75.2493 24.3932 75.3252L22.1334 75.654Z" fill="#898989"/>
<path d="M60.4805 83.1955C60.1467 83.1955 59.8149 83.0912 59.5323 82.8854C59.0291 82.521 58.7829 81.9155 58.8883 81.304L59.3629 78.5322L57.3483 76.5678C56.9052 76.1365 56.7486 75.5014 56.9397 74.9116C57.1297 74.3208 57.6309 73.8994 58.2443 73.8098L61.028 73.4051L62.2726 70.8834C62.5473 70.328 63.1036 69.9814 63.724 69.9814C64.3443 69.9814 64.8996 70.328 65.1753 70.8834L66.4199 73.4051L69.2026 73.8098C69.817 73.8994 70.3182 74.3218 70.5082 74.9116C70.6993 75.5014 70.5427 76.1355 70.0996 76.5678L68.085 78.5322L68.5596 81.304C68.664 81.9155 68.4178 82.521 67.9156 82.8854C67.4135 83.2507 66.7606 83.296 66.2141 83.0075L63.7249 81.6989L61.2357 83.0075C60.9955 83.1325 60.7365 83.1955 60.4805 83.1955ZM63.724 79.6833C63.9819 79.6833 64.2379 79.7453 64.4723 79.8674L66.4977 80.9318L66.1117 78.6809C66.0212 78.157 66.1945 77.6214 66.5765 77.2502L68.213 75.655L65.9522 75.3262C65.4235 75.2503 64.9676 74.9185 64.7332 74.439L63.724 72.3938L62.7127 74.4419C62.4803 74.9185 62.0244 75.2503 61.4957 75.3262L59.2349 75.655L60.8714 77.2502C61.2534 77.6214 61.4258 78.157 61.3362 78.6819L60.9502 80.9318L62.9727 79.8694C63.208 79.7453 63.467 79.6833 63.724 79.6833ZM60.9453 73.5705C60.9453 73.5705 60.9453 73.5715 60.9443 73.5725L60.9453 73.5705ZM66.4997 73.5676L66.5007 73.5695C66.5007 73.5685 66.5007 73.5676 66.4997 73.5676Z" fill="#898989"/>
<path d="M28.3839 52.3756C24.3163 52.3756 21.0078 49.0672 21.0078 44.9996C21.0078 40.932 24.3163 37.6235 28.3839 37.6235C29.5576 37.6235 30.7264 37.9071 31.7632 38.4418C32.2467 38.6909 32.4367 39.2847 32.1866 39.7681C31.9365 40.2516 31.3428 40.4416 30.8603 40.1915C30.0903 39.7937 29.2573 39.5928 28.3839 39.5928C25.4023 39.5928 22.9771 42.0181 22.9771 44.9996C22.9771 47.9811 25.4023 50.4063 28.3839 50.4063C29.0603 50.4063 29.7122 50.2852 30.3305 50.046V46.4579H28.2155C27.672 46.4579 27.2308 46.0177 27.2308 45.4732C27.2308 44.9297 27.672 44.4886 28.2155 44.4886H31.3152C31.8587 44.4886 32.2999 44.9297 32.2999 45.4732V50.6801C32.2999 51.0483 32.095 51.3861 31.7672 51.5554C30.7283 52.0921 29.5586 52.3756 28.3839 52.3756Z" fill="#898989"/>
<path d="M39.4218 52.3756C38.2471 52.3756 37.0764 52.0921 36.0386 51.5554C35.7117 51.3861 35.5059 51.0483 35.5059 50.6801L35.5088 39.3162C35.5088 38.9479 35.7146 38.6102 36.0415 38.4418C37.0784 37.9071 38.2471 37.6235 39.4209 37.6235C43.4875 37.6235 46.7969 40.932 46.7969 44.9996C46.7969 49.0672 43.4885 52.3756 39.4218 52.3756ZM37.4752 50.046C38.0926 50.2852 38.7454 50.4063 39.4218 50.4063C42.4034 50.4063 44.8286 47.9811 44.8286 44.9996C44.8286 42.0181 42.4034 39.5928 39.4218 39.5928C38.7464 39.5928 38.0945 39.714 37.4781 39.9522L37.4752 50.046Z" fill="#898989"/>
<path d="M52.5665 37.6235C51.6862 37.6235 50.8443 37.7949 50.0635 38.1326C49.7031 38.2882 49.4688 38.6436 49.4688 39.0355L49.4668 45.9025V51.391C49.4668 51.9355 49.9069 52.3756 50.4515 52.3756C50.996 52.3756 51.4361 51.9355 51.4361 51.391V47.2131C51.8044 47.2781 52.1805 47.3175 52.5655 47.3175C55.6504 47.3175 58.1603 45.1434 58.1603 42.471C58.1613 39.7977 55.6514 37.6235 52.5665 37.6235ZM52.5665 45.3482C52.1815 45.3482 51.7994 45.2989 51.4371 45.2044L51.4391 39.7376C51.8014 39.6431 52.1835 39.5938 52.5665 39.5938C54.5653 39.5938 56.192 40.8847 56.192 42.471C56.192 44.0563 54.5663 45.3482 52.5665 45.3482Z" fill="#898989"/>
<path d="M67.3034 45.9355C68.3442 45.0552 68.9931 43.8283 68.9931 42.4715C68.9931 39.7991 66.4832 37.625 63.3983 37.625C62.518 37.625 61.6761 37.7963 60.8953 38.1341C60.5349 38.2896 60.3006 38.6451 60.3006 39.037L60.2986 45.904V51.3925C60.2986 51.937 60.7387 52.3771 61.2832 52.3771C61.8278 52.3771 62.2679 51.937 62.2679 51.3925V47.2146C62.6362 47.2796 63.0123 47.3189 63.3973 47.3189C64.1417 47.3189 64.8506 47.19 65.5015 46.9605C66.4832 47.6971 67.0228 49.244 67.0228 51.3935C67.0228 51.938 67.4629 52.3781 68.0074 52.3781C68.552 52.3781 68.9921 51.938 68.9921 51.3935C68.9931 49.0096 68.4023 47.1319 67.3034 45.9355ZM62.2689 45.2039L62.2708 39.7371C62.6332 39.6426 63.0152 39.5933 63.3983 39.5933C65.3971 39.5933 67.0238 40.8842 67.0238 42.4705C67.0238 44.0568 65.3981 45.3477 63.3983 45.3477C63.0143 45.3487 62.6312 45.2994 62.2689 45.2039Z" fill="#898989"/>
</svg>
