<svg width="56" height="80" viewBox="0 0 56 80" fill="none" xmlns="http://www.w3.org/2000/svg">
<path d="M49.3333 80H6.66667C2.93333 80 0 77.0667 0 73.3333V38.6667C0 34.9333 2.93333 32 6.66667 32H49.3333C53.0667 32 56 34.9333 56 38.6667V73.3333C56 77.0667 53.0667 80 49.3333 80ZM6.66667 34.6667C4.53333 34.6667 2.66667 36.5333 2.66667 38.6667V73.3333C2.66667 75.4667 4.53333 77.3333 6.66667 77.3333H49.3333C51.4667 77.3333 53.3333 75.4667 53.3333 73.3333V38.6667C53.3333 36.5333 51.4667 34.6667 49.3333 34.6667H6.66667Z" fill="#898989"/>
<path d="M49.3333 34.6667H41.3333C40.5333 34.6667 39.9999 34.1333 39.9999 33.3333V22.6667C39.9999 16 34.6666 10.6667 27.9999 10.6667C21.3333 10.6667 15.9999 16 15.9999 22.6667V33.3333C15.9999 34.1333 15.4666 34.6667 14.6666 34.6667H6.66659C5.86659 34.6667 5.33325 34.1333 5.33325 33.3333V22.6667C5.33325 10.1333 15.4666 0 27.9999 0C40.5333 0 50.6666 10.1333 50.6666 22.6667V33.3333C50.6666 34.1333 50.1333 34.6667 49.3333 34.6667ZM42.6666 32H47.9999V22.6667C47.9999 11.7333 38.9333 2.66667 27.9999 2.66667C17.0666 2.66667 7.99992 11.7333 7.99992 22.6667V32H13.3333V22.6667C13.3333 14.6667 19.9999 8 27.9999 8C35.9999 8 42.6666 14.6667 42.6666 22.6667V32Z" fill="#898989"/>
<path d="M33.3334 69.3332H22.6667C22.1334 69.3332 21.8667 69.0665 21.6001 68.7998C21.3334 68.5332 21.3334 67.9998 21.3334 67.7332L23.4667 60.2665C20.5334 58.6665 18.6667 55.4665 18.6667 51.9998C18.6667 46.9332 22.9334 42.6665 28.0001 42.6665C33.0668 42.6665 37.3334 46.9332 37.3334 51.9998C37.3334 55.4665 35.4668 58.6665 32.5334 60.2665L34.6668 67.7332C34.6668 68.2665 34.6667 68.5332 34.4001 68.7998C34.1334 69.0665 33.8668 69.3332 33.3334 69.3332ZM24.5334 66.6665H31.7334L29.8667 59.7332C29.6001 59.1998 30.1334 58.3998 30.6668 58.1332C33.3334 57.0665 34.9334 54.6665 34.9334 51.9998C34.9334 48.2665 32.0001 45.3332 28.2668 45.3332C24.5334 45.3332 21.6001 48.2665 21.6001 51.9998C21.6001 54.6665 23.2001 57.0665 25.8667 58.1332C26.4001 58.3998 26.9334 59.1998 26.6667 59.7332L24.5334 66.6665Z" fill="#898989"/>
</svg>
