<svg width="50" height="50" viewBox="0 0 50 50" fill="none" xmlns="http://www.w3.org/2000/svg">
<g filter="url(#filter0_d_592:2958)">
<circle cx="24" cy="24" r="18.5" stroke="url(#paint0_linear_592:2958)" stroke-width="3"/>
<g filter="url(#filter1_d_592:2958)">
<path d="M23.1373 34V21.2454L19.9126 22.6172V19.6571L24.1962 17.4431H26.5546V34H23.1373Z" fill="url(#paint1_linear_592:2958)"/>
<path d="M23.1373 34H22.1373V35H23.1373V34ZM23.1373 21.2454H24.1373V19.7333L22.7459 20.3252L23.1373 21.2454ZM19.9126 22.6172H18.9126V24.1292L20.304 23.5374L19.9126 22.6172ZM19.9126 19.6571L19.4534 18.7688L18.9126 19.0483V19.6571H19.9126ZM24.1962 17.4431V16.4431H23.953L23.737 16.5548L24.1962 17.4431ZM26.5546 17.4431H27.5546V16.4431H26.5546V17.4431ZM26.5546 34V35H27.5546V34H26.5546ZM24.1373 34V21.2454H22.1373V34H24.1373ZM22.7459 20.3252L19.5211 21.6969L20.304 23.5374L23.5288 22.1656L22.7459 20.3252ZM20.9126 22.6172V19.6571H18.9126V22.6172H20.9126ZM20.3717 20.5455L24.6553 18.3315L23.737 16.5548L19.4534 18.7688L20.3717 20.5455ZM24.1962 18.4431H26.5546V16.4431H24.1962V18.4431ZM25.5546 17.4431V34H27.5546V17.4431H25.5546ZM26.5546 33H23.1373V35H26.5546V33Z" fill="white"/>
</g>
</g>
<defs>
<filter id="filter0_d_592:2958" x="0" y="0" width="50" height="50" filterUnits="userSpaceOnUse" color-interpolation-filters="sRGB">
<feFlood flood-opacity="0" result="BackgroundImageFix"/>
<feColorMatrix in="SourceAlpha" type="matrix" values="0 0 0 0 0 0 0 0 0 0 0 0 0 0 0 0 0 0 127 0" result="hardAlpha"/>
<feOffset dx="1" dy="1"/>
<feGaussianBlur stdDeviation="2.5"/>
<feComposite in2="hardAlpha" operator="out"/>
<feColorMatrix type="matrix" values="0 0 0 0 0 0 0 0 0 0 0 0 0 0 0 0 0 0 0.25 0"/>
<feBlend mode="normal" in2="BackgroundImageFix" result="effect1_dropShadow_592:2958"/>
<feBlend mode="normal" in="SourceGraphic" in2="effect1_dropShadow_592:2958" result="shape"/>
</filter>
<filter id="filter1_d_592:2958" x="14.9126" y="12.4431" width="18.6421" height="28.5569" filterUnits="userSpaceOnUse" color-interpolation-filters="sRGB">
<feFlood flood-opacity="0" result="BackgroundImageFix"/>
<feColorMatrix in="SourceAlpha" type="matrix" values="0 0 0 0 0 0 0 0 0 0 0 0 0 0 0 0 0 0 127 0" result="hardAlpha"/>
<feOffset dx="1" dy="1"/>
<feGaussianBlur stdDeviation="2.5"/>
<feComposite in2="hardAlpha" operator="out"/>
<feColorMatrix type="matrix" values="0 0 0 0 0 0 0 0 0 0 0 0 0 0 0 0 0 0 0.25 0"/>
<feBlend mode="normal" in2="BackgroundImageFix" result="effect1_dropShadow_592:2958"/>
<feBlend mode="normal" in="SourceGraphic" in2="effect1_dropShadow_592:2958" result="shape"/>
</filter>
<linearGradient id="paint0_linear_592:2958" x1="4" y1="24" x2="44" y2="24" gradientUnits="userSpaceOnUse">
<stop stop-color="#DE063A"/>
<stop offset="1" stop-color="#FF2473"/>
</linearGradient>
<linearGradient id="paint1_linear_592:2958" x1="8" y1="25.5" x2="40" y2="25.5" gradientUnits="userSpaceOnUse">
<stop stop-color="#DE063A"/>
<stop offset="1" stop-color="#FF2473"/>
</linearGradient>
</defs>
</svg>
