<svg width="10" height="14" viewBox="0 0 10 14" fill="none" xmlns="http://www.w3.org/2000/svg">
<path d="M0.921875 0.851562C0.765625 1.00781 0.6875 1.22656 0.6875 1.50781C0.6875 1.78906 0.707031 2.03906 0.746094 2.25781C0.792969 2.47656 0.878906 2.69531 1.00391 2.91406C1.25391 3.34375 1.73047 3.78906 2.43359 4.25L6.55859 6.99219L2.43359 9.73438C1.45703 10.4141 0.898438 11.0781 0.757812 11.7266C0.710938 11.9453 0.6875 12.1445 0.6875 12.3242C0.6875 12.707 0.765625 12.9766 0.921875 13.1328L8.39844 7.98828C8.83594 7.68359 9.05469 7.35156 9.05469 6.99219C9.05469 6.63281 8.83594 6.30078 8.39844 5.99609L0.921875 0.851562Z" fill="black"/>
</svg>
